<mxfile host="app.diagrams.net" modified="2023-08-01T04:31:00.587Z" agent="Mozilla/5.0 (Windows NT 10.0; Win64; x64) AppleWebKit/537.36 (KHTML, like Gecko) Chrome/114.0.0.0 Safari/537.36 Edg/114.0.1823.55" etag="dE3XhyLvODPfN8PQi-0n" version="21.6.6" type="google">
  <diagram name="Page-1" id="5d7acffa-a066-3a61-03fe-96351882024d">
    <mxGraphModel grid="1" page="1" gridSize="10" guides="1" tooltips="1" connect="1" arrows="1" fold="1" pageScale="1" pageWidth="1100" pageHeight="850" background="#ffffff" math="0" shadow="0">
      <root>
        <mxCell id="0" />
        <mxCell id="1" parent="0" />
        <mxCell id="MM9fYvrUzjAnFo6KrJ6U-134" value="Phase 1" style="swimlane;horizontal=0;whiteSpace=wrap;html=1;startSize=23;" vertex="1" parent="1">
          <mxGeometry x="-40" y="90" width="1140" height="700" as="geometry">
            <mxRectangle x="-40" y="90" width="40" height="150" as="alternateBounds" />
          </mxGeometry>
        </mxCell>
        <mxCell id="MM9fYvrUzjAnFo6KrJ6U-9" style="edgeStyle=orthogonalEdgeStyle;rounded=0;orthogonalLoop=1;jettySize=auto;html=1;exitX=0.5;exitY=1;exitDx=0;exitDy=0;exitPerimeter=0;entryX=0.5;entryY=0;entryDx=0;entryDy=0;" edge="1" parent="1" source="MM9fYvrUzjAnFo6KrJ6U-2">
          <mxGeometry relative="1" as="geometry">
            <mxPoint x="460" y="240" as="targetPoint" />
          </mxGeometry>
        </mxCell>
        <mxCell id="MM9fYvrUzjAnFo6KrJ6U-12" style="edgeStyle=orthogonalEdgeStyle;rounded=0;orthogonalLoop=1;jettySize=auto;html=1;exitX=0.5;exitY=1;exitDx=0;exitDy=0;exitPerimeter=0;entryX=0;entryY=0.5;entryDx=0;entryDy=0;" edge="1" parent="1" source="MM9fYvrUzjAnFo6KrJ6U-2" target="MM9fYvrUzjAnFo6KrJ6U-37">
          <mxGeometry relative="1" as="geometry">
            <mxPoint x="375" y="483" as="targetPoint" />
            <Array as="points">
              <mxPoint x="460" y="210" />
              <mxPoint x="355" y="210" />
              <mxPoint x="355" y="380" />
            </Array>
          </mxGeometry>
        </mxCell>
        <mxCell id="MM9fYvrUzjAnFo6KrJ6U-2" value="START" style="strokeWidth=2;html=1;shape=mxgraph.flowchart.terminator;whiteSpace=wrap;" vertex="1" parent="1">
          <mxGeometry x="410" y="120" width="100" height="60" as="geometry" />
        </mxCell>
        <mxCell id="MM9fYvrUzjAnFo6KrJ6U-10" style="edgeStyle=orthogonalEdgeStyle;rounded=0;orthogonalLoop=1;jettySize=auto;html=1;exitX=1;exitY=0.5;exitDx=0;exitDy=0;entryX=0.5;entryY=0;entryDx=0;entryDy=0;" edge="1" parent="1" source="MM9fYvrUzjAnFo6KrJ6U-36" target="MM9fYvrUzjAnFo6KrJ6U-38">
          <mxGeometry relative="1" as="geometry">
            <mxPoint x="545" y="290" as="sourcePoint" />
            <mxPoint x="730" y="445" as="targetPoint" />
          </mxGeometry>
        </mxCell>
        <mxCell id="MM9fYvrUzjAnFo6KrJ6U-7" style="edgeStyle=orthogonalEdgeStyle;rounded=0;orthogonalLoop=1;jettySize=auto;html=1;exitX=0.5;exitY=1;exitDx=0;exitDy=0;entryX=0.5;entryY=0;entryDx=0;entryDy=0;entryPerimeter=0;" edge="1" parent="1" source="MM9fYvrUzjAnFo6KrJ6U-37" target="MM9fYvrUzjAnFo6KrJ6U-6">
          <mxGeometry relative="1" as="geometry">
            <mxPoint x="460" y="525" as="sourcePoint" />
          </mxGeometry>
        </mxCell>
        <mxCell id="MM9fYvrUzjAnFo6KrJ6U-43" style="edgeStyle=orthogonalEdgeStyle;rounded=0;orthogonalLoop=1;jettySize=auto;html=1;exitX=1;exitY=0.5;exitDx=0;exitDy=0;exitPerimeter=0;entryX=0;entryY=0.5;entryDx=0;entryDy=0;" edge="1" parent="1" source="MM9fYvrUzjAnFo6KrJ6U-6" target="MM9fYvrUzjAnFo6KrJ6U-29">
          <mxGeometry relative="1" as="geometry" />
        </mxCell>
        <mxCell id="MM9fYvrUzjAnFo6KrJ6U-6" value="CRM Database" style="strokeWidth=2;html=1;shape=mxgraph.flowchart.database;whiteSpace=wrap;" vertex="1" parent="1">
          <mxGeometry x="415" y="447.5" width="100" height="90" as="geometry" />
        </mxCell>
        <mxCell id="MM9fYvrUzjAnFo6KrJ6U-44" style="edgeStyle=orthogonalEdgeStyle;rounded=0;orthogonalLoop=1;jettySize=auto;html=1;exitX=1;exitY=0.5;exitDx=0;exitDy=0;entryX=0;entryY=0.5;entryDx=0;entryDy=0;" edge="1" parent="1" source="MM9fYvrUzjAnFo6KrJ6U-29" target="MM9fYvrUzjAnFo6KrJ6U-38">
          <mxGeometry relative="1" as="geometry" />
        </mxCell>
        <mxCell id="MM9fYvrUzjAnFo6KrJ6U-29" value="CRM.SALE_TXN, CRM.PRODUCT, CRM.STORE_WH&lt;br&gt;CRM.MEMBER_INFO" style="shape=parallelogram;perimeter=parallelogramPerimeter;whiteSpace=wrap;html=1;fixedSize=1;" vertex="1" parent="1">
          <mxGeometry x="550" y="450" width="160" height="85" as="geometry" />
        </mxCell>
        <mxCell id="MM9fYvrUzjAnFo6KrJ6U-59" style="edgeStyle=orthogonalEdgeStyle;rounded=0;orthogonalLoop=1;jettySize=auto;html=1;exitX=1;exitY=0.5;exitDx=0;exitDy=0;" edge="1" parent="1" target="MM9fYvrUzjAnFo6KrJ6U-58">
          <mxGeometry relative="1" as="geometry">
            <mxPoint x="308.75" y="728.75" as="sourcePoint" />
            <Array as="points">
              <mxPoint x="309" y="730" />
            </Array>
          </mxGeometry>
        </mxCell>
        <mxCell id="MM9fYvrUzjAnFo6KrJ6U-78" style="edgeStyle=orthogonalEdgeStyle;rounded=0;orthogonalLoop=1;jettySize=auto;html=1;exitX=0.5;exitY=1;exitDx=0;exitDy=0;entryX=0.5;entryY=0;entryDx=0;entryDy=0;" edge="1" parent="1" source="MM9fYvrUzjAnFo6KrJ6U-31" target="MM9fYvrUzjAnFo6KrJ6U-73">
          <mxGeometry relative="1" as="geometry" />
        </mxCell>
        <mxCell id="MM9fYvrUzjAnFo6KrJ6U-31" value="#CleanTxn" style="shape=parallelogram;perimeter=parallelogramPerimeter;whiteSpace=wrap;html=1;fixedSize=1;" vertex="1" parent="1">
          <mxGeometry x="190" y="570" width="120" height="60" as="geometry" />
        </mxCell>
        <mxCell id="MM9fYvrUzjAnFo6KrJ6U-36" value="Open &quot;RFM_first_stage.sql&quot;" style="rounded=0;whiteSpace=wrap;html=1;" vertex="1" parent="1">
          <mxGeometry x="395" y="240" width="130" height="70" as="geometry" />
        </mxCell>
        <mxCell id="MM9fYvrUzjAnFo6KrJ6U-37" value="&#xa;&lt;span style=&quot;color: rgb(0, 0, 0); font-family: Helvetica; font-size: 12px; font-style: normal; font-variant-ligatures: normal; font-variant-caps: normal; font-weight: 400; letter-spacing: normal; orphans: 2; text-align: center; text-indent: 0px; text-transform: none; widows: 2; word-spacing: 0px; -webkit-text-stroke-width: 0px; background-color: rgb(251, 251, 251); text-decoration-thickness: initial; text-decoration-style: initial; text-decoration-color: initial; float: none; display: inline !important;&quot;&gt;Connect to SQL Server&lt;/span&gt;&#xa;&#xa;" style="rounded=0;whiteSpace=wrap;html=1;" vertex="1" parent="1">
          <mxGeometry x="405" y="350" width="120" height="60" as="geometry" />
        </mxCell>
        <mxCell id="MM9fYvrUzjAnFo6KrJ6U-64" style="edgeStyle=orthogonalEdgeStyle;rounded=0;orthogonalLoop=1;jettySize=auto;html=1;exitX=0.5;exitY=1;exitDx=0;exitDy=0;entryX=0.5;entryY=0;entryDx=0;entryDy=0;" edge="1" parent="1" source="MM9fYvrUzjAnFo6KrJ6U-38" target="MM9fYvrUzjAnFo6KrJ6U-60">
          <mxGeometry relative="1" as="geometry" />
        </mxCell>
        <mxCell id="MM9fYvrUzjAnFo6KrJ6U-38" value="&#xa;&lt;span style=&quot;color: rgb(0, 0, 0); font-family: Helvetica; font-size: 12px; font-style: normal; font-variant-ligatures: normal; font-variant-caps: normal; font-weight: 400; letter-spacing: normal; orphans: 2; text-align: center; text-indent: 0px; text-transform: none; widows: 2; word-spacing: 0px; -webkit-text-stroke-width: 0px; background-color: rgb(251, 251, 251); text-decoration-thickness: initial; text-decoration-style: initial; text-decoration-color: initial; float: none; display: inline !important;&quot;&gt;Remove product brand name = &quot;General&quot;, store WH code = &quot;QRC&quot;&lt;/span&gt;&#xa;&#xa;" style="rounded=0;whiteSpace=wrap;html=1;" vertex="1" parent="1">
          <mxGeometry x="740" y="457.5" width="150" height="70" as="geometry" />
        </mxCell>
        <mxCell id="MM9fYvrUzjAnFo6KrJ6U-50" style="edgeStyle=orthogonalEdgeStyle;rounded=0;orthogonalLoop=1;jettySize=auto;html=1;exitX=0.5;exitY=1;exitDx=0;exitDy=0;" edge="1" parent="1">
          <mxGeometry relative="1" as="geometry">
            <mxPoint x="407.5" y="635" as="sourcePoint" />
            <mxPoint x="407.5" y="635" as="targetPoint" />
          </mxGeometry>
        </mxCell>
        <mxCell id="MM9fYvrUzjAnFo6KrJ6U-54" style="edgeStyle=orthogonalEdgeStyle;rounded=0;orthogonalLoop=1;jettySize=auto;html=1;exitX=0;exitY=0.5;exitDx=0;exitDy=0;entryX=1;entryY=0.5;entryDx=0;entryDy=0;" edge="1" parent="1" source="MM9fYvrUzjAnFo6KrJ6U-51" target="MM9fYvrUzjAnFo6KrJ6U-53">
          <mxGeometry relative="1" as="geometry" />
        </mxCell>
        <mxCell id="MM9fYvrUzjAnFo6KrJ6U-51" value="&lt;br&gt;&lt;span style=&quot;color: rgb(0, 0, 0); font-family: Helvetica; font-size: 12px; font-style: normal; font-variant-ligatures: normal; font-variant-caps: normal; font-weight: 400; letter-spacing: normal; orphans: 2; text-align: center; text-indent: 0px; text-transform: none; widows: 2; word-spacing: 0px; -webkit-text-stroke-width: 0px; background-color: rgb(251, 251, 251); text-decoration-thickness: initial; text-decoration-style: initial; text-decoration-color: initial; float: none; display: inline !important;&quot;&gt;Filter out MEMBER_ID that does not start with (LM*, LM0, LM1)&lt;/span&gt;&lt;br&gt;" style="rounded=0;whiteSpace=wrap;html=1;" vertex="1" parent="1">
          <mxGeometry x="525" y="560" width="160" height="80" as="geometry" />
        </mxCell>
        <mxCell id="MM9fYvrUzjAnFo6KrJ6U-55" style="edgeStyle=orthogonalEdgeStyle;rounded=0;orthogonalLoop=1;jettySize=auto;html=1;exitX=0;exitY=0.5;exitDx=0;exitDy=0;entryX=1;entryY=0.5;entryDx=0;entryDy=0;" edge="1" parent="1" source="MM9fYvrUzjAnFo6KrJ6U-53" target="MM9fYvrUzjAnFo6KrJ6U-31">
          <mxGeometry relative="1" as="geometry" />
        </mxCell>
        <mxCell id="MM9fYvrUzjAnFo6KrJ6U-53" value="&#xa;&lt;span style=&quot;color: rgb(0, 0, 0); font-family: Helvetica; font-size: 12px; font-style: normal; font-variant-ligatures: normal; font-variant-caps: normal; font-weight: 400; letter-spacing: normal; orphans: 2; text-align: center; text-indent: 0px; text-transform: none; widows: 2; word-spacing: 0px; -webkit-text-stroke-width: 0px; background-color: rgb(251, 251, 251); text-decoration-thickness: initial; text-decoration-style: initial; text-decoration-color: initial; float: none; display: inline !important;&quot;&gt;Return reason = Null&lt;/span&gt;&#xa;&#xa;" style="rounded=0;whiteSpace=wrap;html=1;" vertex="1" parent="1">
          <mxGeometry x="358.75" y="570" width="120" height="60" as="geometry" />
        </mxCell>
        <mxCell id="MM9fYvrUzjAnFo6KrJ6U-76" style="edgeStyle=orthogonalEdgeStyle;rounded=0;orthogonalLoop=1;jettySize=auto;html=1;exitX=1;exitY=0.5;exitDx=0;exitDy=0;entryX=0;entryY=0.5;entryDx=0;entryDy=0;" edge="1" parent="1" source="MM9fYvrUzjAnFo6KrJ6U-58" target="MM9fYvrUzjAnFo6KrJ6U-72">
          <mxGeometry relative="1" as="geometry" />
        </mxCell>
        <mxCell id="MM9fYvrUzjAnFo6KrJ6U-58" value="#Temp_Member_Metrics" style="shape=parallelogram;perimeter=parallelogramPerimeter;whiteSpace=wrap;html=1;fixedSize=1;" vertex="1" parent="1">
          <mxGeometry x="405" y="698.12" width="170" height="61.25" as="geometry" />
        </mxCell>
        <mxCell id="MM9fYvrUzjAnFo6KrJ6U-62" style="edgeStyle=orthogonalEdgeStyle;rounded=0;orthogonalLoop=1;jettySize=auto;html=1;exitX=0;exitY=0.5;exitDx=0;exitDy=0;entryX=1;entryY=0.5;entryDx=0;entryDy=0;" edge="1" parent="1" source="MM9fYvrUzjAnFo6KrJ6U-60" target="MM9fYvrUzjAnFo6KrJ6U-51">
          <mxGeometry relative="1" as="geometry" />
        </mxCell>
        <mxCell id="MM9fYvrUzjAnFo6KrJ6U-60" value="&lt;br style=&quot;border-color: var(--border-color);&quot;&gt;Change date range and set maximum date for recency calculation" style="html=1;strokeWidth=2;shape=manualInput;whiteSpace=wrap;rounded=1;size=26;arcSize=0;" vertex="1" parent="1">
          <mxGeometry x="732.5" y="555" width="165" height="90" as="geometry" />
        </mxCell>
        <mxCell id="MM9fYvrUzjAnFo6KrJ6U-82" style="edgeStyle=orthogonalEdgeStyle;rounded=0;orthogonalLoop=1;jettySize=auto;html=1;exitX=0.5;exitY=1;exitDx=0;exitDy=0;" edge="1" parent="1" source="MM9fYvrUzjAnFo6KrJ6U-72" target="MM9fYvrUzjAnFo6KrJ6U-81">
          <mxGeometry relative="1" as="geometry" />
        </mxCell>
        <mxCell id="MM9fYvrUzjAnFo6KrJ6U-72" value="&#xa;&lt;span style=&quot;color: rgb(0, 0, 0); font-family: Helvetica; font-size: 12px; font-style: normal; font-variant-ligatures: normal; font-variant-caps: normal; font-weight: 400; letter-spacing: normal; orphans: 2; text-align: center; text-indent: 0px; text-transform: none; widows: 2; word-spacing: 0px; -webkit-text-stroke-width: 0px; background-color: rgb(251, 251, 251); text-decoration-thickness: initial; text-decoration-style: initial; text-decoration-color: initial; float: none; display: inline !important;&quot;&gt;Export as CSV&lt;/span&gt;&#xa;&#xa;" style="rounded=0;whiteSpace=wrap;html=1;" vertex="1" parent="1">
          <mxGeometry x="605" y="708.74" width="95" height="40" as="geometry" />
        </mxCell>
        <mxCell id="MM9fYvrUzjAnFo6KrJ6U-73" value="&#xa;&lt;span style=&quot;color: rgb(0, 0, 0); font-family: Helvetica; font-size: 12px; font-style: normal; font-variant-ligatures: normal; font-variant-caps: normal; font-weight: 400; letter-spacing: normal; orphans: 2; text-align: center; text-indent: 0px; text-transform: none; widows: 2; word-spacing: 0px; -webkit-text-stroke-width: 0px; background-color: rgb(251, 251, 251); text-decoration-thickness: initial; text-decoration-style: initial; text-decoration-color: initial; float: none; display: inline !important;&quot;&gt;Group by MEMBER_ID, create recency, latest transaction date, sum of QTY by member, sum of sales by member&lt;/span&gt;&#xa;&#xa;" style="rounded=0;whiteSpace=wrap;html=1;" vertex="1" parent="1">
          <mxGeometry x="155" y="680" width="190" height="90" as="geometry" />
        </mxCell>
        <mxCell id="MM9fYvrUzjAnFo6KrJ6U-86" style="edgeStyle=orthogonalEdgeStyle;rounded=0;orthogonalLoop=1;jettySize=auto;html=1;exitX=0.5;exitY=1;exitDx=0;exitDy=0;" edge="1" parent="1" source="MM9fYvrUzjAnFo6KrJ6U-79" target="MM9fYvrUzjAnFo6KrJ6U-84">
          <mxGeometry relative="1" as="geometry" />
        </mxCell>
        <mxCell id="MM9fYvrUzjAnFo6KrJ6U-79" value="Open &quot;data_preparation.ipynb&quot;" style="rounded=0;whiteSpace=wrap;html=1;" vertex="1" parent="1">
          <mxGeometry x="740" y="840" width="160" height="60" as="geometry" />
        </mxCell>
        <mxCell id="MM9fYvrUzjAnFo6KrJ6U-83" style="edgeStyle=orthogonalEdgeStyle;rounded=0;orthogonalLoop=1;jettySize=auto;html=1;exitX=1;exitY=0.5;exitDx=0;exitDy=0;entryX=0;entryY=0.5;entryDx=0;entryDy=0;" edge="1" parent="1" source="MM9fYvrUzjAnFo6KrJ6U-81" target="MM9fYvrUzjAnFo6KrJ6U-79">
          <mxGeometry relative="1" as="geometry" />
        </mxCell>
        <mxCell id="MM9fYvrUzjAnFo6KrJ6U-81" value="Import CSV file" style="shape=parallelogram;perimeter=parallelogramPerimeter;whiteSpace=wrap;html=1;fixedSize=1;" vertex="1" parent="1">
          <mxGeometry x="592.5" y="840" width="120" height="60" as="geometry" />
        </mxCell>
        <mxCell id="MM9fYvrUzjAnFo6KrJ6U-91" style="edgeStyle=orthogonalEdgeStyle;rounded=0;orthogonalLoop=1;jettySize=auto;html=1;exitX=0.5;exitY=1;exitDx=0;exitDy=0;" edge="1" parent="1" source="MM9fYvrUzjAnFo6KrJ6U-84" target="MM9fYvrUzjAnFo6KrJ6U-89">
          <mxGeometry relative="1" as="geometry" />
        </mxCell>
        <mxCell id="MM9fYvrUzjAnFo6KrJ6U-99" style="edgeStyle=orthogonalEdgeStyle;rounded=0;orthogonalLoop=1;jettySize=auto;html=1;exitX=0;exitY=0.5;exitDx=0;exitDy=0;entryX=0.5;entryY=0;entryDx=0;entryDy=0;" edge="1" parent="1" source="MM9fYvrUzjAnFo6KrJ6U-84" target="MM9fYvrUzjAnFo6KrJ6U-85">
          <mxGeometry relative="1" as="geometry" />
        </mxCell>
        <mxCell id="MM9fYvrUzjAnFo6KrJ6U-84" value="Calculate percentile cutoff" style="rounded=0;whiteSpace=wrap;html=1;" vertex="1" parent="1">
          <mxGeometry x="760" y="960" width="120" height="60" as="geometry" />
        </mxCell>
        <mxCell id="xa-D4K-9--y_-R1omy8u-5" style="edgeStyle=orthogonalEdgeStyle;rounded=0;orthogonalLoop=1;jettySize=auto;html=1;exitX=0.5;exitY=1;exitDx=0;exitDy=0;entryX=0.5;entryY=0;entryDx=0;entryDy=0;" edge="1" parent="1" source="MM9fYvrUzjAnFo6KrJ6U-85" target="xa-D4K-9--y_-R1omy8u-1">
          <mxGeometry relative="1" as="geometry" />
        </mxCell>
        <mxCell id="MM9fYvrUzjAnFo6KrJ6U-85" value="RFM calculation for Kunnithi&#39;s report" style="rounded=0;whiteSpace=wrap;html=1;" vertex="1" parent="1">
          <mxGeometry x="60" y="1245" width="120" height="60" as="geometry" />
        </mxCell>
        <mxCell id="MM9fYvrUzjAnFo6KrJ6U-90" style="edgeStyle=orthogonalEdgeStyle;rounded=0;orthogonalLoop=1;jettySize=auto;html=1;exitX=1;exitY=0.5;exitDx=0;exitDy=0;" edge="1" parent="1" source="MM9fYvrUzjAnFo6KrJ6U-88" target="MM9fYvrUzjAnFo6KrJ6U-89">
          <mxGeometry relative="1" as="geometry" />
        </mxCell>
        <mxCell id="MM9fYvrUzjAnFo6KrJ6U-88" value="Open &quot;RFM_second_stage.sql&quot;" style="rounded=0;whiteSpace=wrap;html=1;" vertex="1" parent="1">
          <mxGeometry x="497.5" y="1100" width="175" height="50" as="geometry" />
        </mxCell>
        <mxCell id="MM9fYvrUzjAnFo6KrJ6U-100" style="edgeStyle=orthogonalEdgeStyle;rounded=0;orthogonalLoop=1;jettySize=auto;html=1;exitX=0.5;exitY=1;exitDx=0;exitDy=0;entryX=0.5;entryY=0;entryDx=0;entryDy=0;" edge="1" parent="1" source="MM9fYvrUzjAnFo6KrJ6U-89" target="MM9fYvrUzjAnFo6KrJ6U-96">
          <mxGeometry relative="1" as="geometry" />
        </mxCell>
        <mxCell id="MM9fYvrUzjAnFo6KrJ6U-89" value="Apply percentile cutoff&amp;nbsp;" style="html=1;strokeWidth=2;shape=manualInput;whiteSpace=wrap;rounded=1;size=26;arcSize=0;" vertex="1" parent="1">
          <mxGeometry x="735" y="1092.5" width="170" height="65" as="geometry" />
        </mxCell>
        <mxCell id="MM9fYvrUzjAnFo6KrJ6U-105" style="edgeStyle=orthogonalEdgeStyle;rounded=0;orthogonalLoop=1;jettySize=auto;html=1;exitX=0.5;exitY=1;exitDx=0;exitDy=0;entryX=0.5;entryY=0;entryDx=0;entryDy=0;" edge="1" parent="1" source="MM9fYvrUzjAnFo6KrJ6U-94" target="MM9fYvrUzjAnFo6KrJ6U-103">
          <mxGeometry relative="1" as="geometry" />
        </mxCell>
        <mxCell id="MM9fYvrUzjAnFo6KrJ6U-94" value="&#xa;&lt;span style=&quot;color: rgb(0, 0, 0); font-family: Helvetica; font-size: 12px; font-style: normal; font-variant-ligatures: normal; font-variant-caps: normal; font-weight: 400; letter-spacing: normal; orphans: 2; text-align: center; text-indent: 0px; text-transform: none; widows: 2; word-spacing: 0px; -webkit-text-stroke-width: 0px; background-color: rgb(251, 251, 251); text-decoration-thickness: initial; text-decoration-style: initial; text-decoration-color: initial; float: none; display: inline !important;&quot;&gt;Change date range and set maximum date for recency calculation&lt;/span&gt;&#xa;&#xa;" style="html=1;strokeWidth=2;shape=manualInput;whiteSpace=wrap;rounded=1;size=26;arcSize=0;" vertex="1" parent="1">
          <mxGeometry x="355" y="1195" width="220" height="100" as="geometry" />
        </mxCell>
        <mxCell id="MM9fYvrUzjAnFo6KrJ6U-101" style="edgeStyle=orthogonalEdgeStyle;rounded=0;orthogonalLoop=1;jettySize=auto;html=1;exitX=0;exitY=0.5;exitDx=0;exitDy=0;entryX=1;entryY=0.5;entryDx=0;entryDy=0;" edge="1" parent="1" source="MM9fYvrUzjAnFo6KrJ6U-96" target="MM9fYvrUzjAnFo6KrJ6U-94">
          <mxGeometry relative="1" as="geometry" />
        </mxCell>
        <mxCell id="MM9fYvrUzjAnFo6KrJ6U-96" value="#Tempcutoff1 and #Tempcutoff2" style="shape=parallelogram;perimeter=parallelogramPerimeter;whiteSpace=wrap;html=1;fixedSize=1;" vertex="1" parent="1">
          <mxGeometry x="760" y="1215" width="120" height="60" as="geometry" />
        </mxCell>
        <mxCell id="MM9fYvrUzjAnFo6KrJ6U-114" style="edgeStyle=orthogonalEdgeStyle;rounded=0;orthogonalLoop=1;jettySize=auto;html=1;exitX=0.5;exitY=1;exitDx=0;exitDy=0;entryX=0.5;entryY=0;entryDx=0;entryDy=0;" edge="1" parent="1" source="MM9fYvrUzjAnFo6KrJ6U-103" target="MM9fYvrUzjAnFo6KrJ6U-112">
          <mxGeometry relative="1" as="geometry" />
        </mxCell>
        <mxCell id="MM9fYvrUzjAnFo6KrJ6U-115" style="edgeStyle=orthogonalEdgeStyle;rounded=0;orthogonalLoop=1;jettySize=auto;html=1;exitX=0.5;exitY=1;exitDx=0;exitDy=0;entryX=0.567;entryY=0.019;entryDx=0;entryDy=0;entryPerimeter=0;" edge="1" parent="1" source="MM9fYvrUzjAnFo6KrJ6U-103" target="MM9fYvrUzjAnFo6KrJ6U-113">
          <mxGeometry relative="1" as="geometry" />
        </mxCell>
        <mxCell id="MM9fYvrUzjAnFo6KrJ6U-103" value="Prepare data for RFM segmentation and brand-wise RFM segmentation" style="rounded=0;whiteSpace=wrap;html=1;" vertex="1" parent="1">
          <mxGeometry x="377.5" y="1347.5" width="175" height="90" as="geometry" />
        </mxCell>
        <mxCell id="MM9fYvrUzjAnFo6KrJ6U-108" style="edgeStyle=orthogonalEdgeStyle;rounded=0;orthogonalLoop=1;jettySize=auto;html=1;exitX=0;exitY=0.5;exitDx=0;exitDy=0;entryX=1;entryY=0.5;entryDx=0;entryDy=0;entryPerimeter=0;" edge="1" parent="1" source="MM9fYvrUzjAnFo6KrJ6U-106" target="MM9fYvrUzjAnFo6KrJ6U-107">
          <mxGeometry relative="1" as="geometry" />
        </mxCell>
        <mxCell id="MM9fYvrUzjAnFo6KrJ6U-106" value="Connect to SQL server" style="rounded=0;whiteSpace=wrap;html=1;" vertex="1" parent="1">
          <mxGeometry x="940" y="1355" width="120" height="60" as="geometry" />
        </mxCell>
        <mxCell id="MM9fYvrUzjAnFo6KrJ6U-110" style="edgeStyle=orthogonalEdgeStyle;rounded=0;orthogonalLoop=1;jettySize=auto;html=1;exitX=0;exitY=0.5;exitDx=0;exitDy=0;exitPerimeter=0;" edge="1" parent="1" source="MM9fYvrUzjAnFo6KrJ6U-107" target="MM9fYvrUzjAnFo6KrJ6U-109">
          <mxGeometry relative="1" as="geometry" />
        </mxCell>
        <mxCell id="MM9fYvrUzjAnFo6KrJ6U-107" value="CRM database" style="strokeWidth=2;html=1;shape=mxgraph.flowchart.database;whiteSpace=wrap;" vertex="1" parent="1">
          <mxGeometry x="800" y="1347.5" width="105" height="75" as="geometry" />
        </mxCell>
        <mxCell id="MM9fYvrUzjAnFo6KrJ6U-111" style="edgeStyle=orthogonalEdgeStyle;rounded=0;orthogonalLoop=1;jettySize=auto;html=1;exitX=0;exitY=0.5;exitDx=0;exitDy=0;" edge="1" parent="1" source="MM9fYvrUzjAnFo6KrJ6U-109">
          <mxGeometry relative="1" as="geometry">
            <mxPoint x="560" y="1385.4705882352941" as="targetPoint" />
          </mxGeometry>
        </mxCell>
        <mxCell id="MM9fYvrUzjAnFo6KrJ6U-109" value="&#xa;&lt;span style=&quot;color: rgb(0, 0, 0); font-family: Helvetica; font-size: 12px; font-style: normal; font-variant-ligatures: normal; font-variant-caps: normal; font-weight: 400; letter-spacing: normal; orphans: 2; text-align: center; text-indent: 0px; text-transform: none; widows: 2; word-spacing: 0px; -webkit-text-stroke-width: 0px; background-color: rgb(251, 251, 251); text-decoration-thickness: initial; text-decoration-style: initial; text-decoration-color: initial; float: none; display: inline !important;&quot;&gt;CRM.SALE_TXN, CRM.PRODUCT, CRM.STORE_WH&lt;/span&gt;&lt;br style=&quot;border-color: var(--border-color); color: rgb(0, 0, 0); font-family: Helvetica; font-size: 12px; font-style: normal; font-variant-ligatures: normal; font-variant-caps: normal; font-weight: 400; letter-spacing: normal; orphans: 2; text-align: center; text-indent: 0px; text-transform: none; widows: 2; word-spacing: 0px; -webkit-text-stroke-width: 0px; background-color: rgb(251, 251, 251); text-decoration-thickness: initial; text-decoration-style: initial; text-decoration-color: initial;&quot;&gt;&lt;span style=&quot;color: rgb(0, 0, 0); font-family: Helvetica; font-size: 12px; font-style: normal; font-variant-ligatures: normal; font-variant-caps: normal; font-weight: 400; letter-spacing: normal; orphans: 2; text-align: center; text-indent: 0px; text-transform: none; widows: 2; word-spacing: 0px; -webkit-text-stroke-width: 0px; background-color: rgb(251, 251, 251); text-decoration-thickness: initial; text-decoration-style: initial; text-decoration-color: initial; float: none; display: inline !important;&quot;&gt;CRM.MEMBER_INFO&lt;/span&gt;&#xa;&#xa;" style="shape=parallelogram;html=1;strokeWidth=2;perimeter=parallelogramPerimeter;whiteSpace=wrap;rounded=1;arcSize=0;size=0.23;" vertex="1" parent="1">
          <mxGeometry x="582.5" y="1341.25" width="177.5" height="87.5" as="geometry" />
        </mxCell>
        <mxCell id="MM9fYvrUzjAnFo6KrJ6U-117" style="edgeStyle=orthogonalEdgeStyle;rounded=0;orthogonalLoop=1;jettySize=auto;html=1;exitX=0.5;exitY=1;exitDx=0;exitDy=0;entryX=0;entryY=0.5;entryDx=0;entryDy=0;" edge="1" parent="1" source="MM9fYvrUzjAnFo6KrJ6U-112" target="MM9fYvrUzjAnFo6KrJ6U-116">
          <mxGeometry relative="1" as="geometry" />
        </mxCell>
        <mxCell id="MM9fYvrUzjAnFo6KrJ6U-112" value="#Temp_Member_RFM" style="shape=parallelogram;perimeter=parallelogramPerimeter;whiteSpace=wrap;html=1;fixedSize=1;" vertex="1" parent="1">
          <mxGeometry x="250" y="1480" width="175" height="70" as="geometry" />
        </mxCell>
        <mxCell id="MM9fYvrUzjAnFo6KrJ6U-118" style="edgeStyle=orthogonalEdgeStyle;rounded=0;orthogonalLoop=1;jettySize=auto;html=1;exitX=0.5;exitY=1;exitDx=0;exitDy=0;entryX=1;entryY=0.5;entryDx=0;entryDy=0;" edge="1" parent="1" source="MM9fYvrUzjAnFo6KrJ6U-113" target="MM9fYvrUzjAnFo6KrJ6U-116">
          <mxGeometry relative="1" as="geometry" />
        </mxCell>
        <mxCell id="MM9fYvrUzjAnFo6KrJ6U-113" value="#Temp_Fav_Brand" style="shape=parallelogram;perimeter=parallelogramPerimeter;whiteSpace=wrap;html=1;fixedSize=1;" vertex="1" parent="1">
          <mxGeometry x="490" y="1480" width="175" height="70" as="geometry" />
        </mxCell>
        <mxCell id="MM9fYvrUzjAnFo6KrJ6U-119" style="edgeStyle=orthogonalEdgeStyle;rounded=0;orthogonalLoop=1;jettySize=auto;html=1;exitX=0.5;exitY=1;exitDx=0;exitDy=0;" edge="1" parent="1" source="MM9fYvrUzjAnFo6KrJ6U-116">
          <mxGeometry relative="1" as="geometry">
            <mxPoint x="450.3529411764707" y="1670" as="targetPoint" />
          </mxGeometry>
        </mxCell>
        <mxCell id="MM9fYvrUzjAnFo6KrJ6U-116" value="Export as CSV" style="rounded=0;whiteSpace=wrap;html=1;" vertex="1" parent="1">
          <mxGeometry x="390" y="1570" width="120" height="60" as="geometry" />
        </mxCell>
        <mxCell id="MM9fYvrUzjAnFo6KrJ6U-122" style="edgeStyle=orthogonalEdgeStyle;rounded=0;orthogonalLoop=1;jettySize=auto;html=1;exitX=1;exitY=0.5;exitDx=0;exitDy=0;entryX=0;entryY=0.5;entryDx=0;entryDy=0;" edge="1" parent="1" source="MM9fYvrUzjAnFo6KrJ6U-120" target="MM9fYvrUzjAnFo6KrJ6U-121">
          <mxGeometry relative="1" as="geometry" />
        </mxCell>
        <mxCell id="MM9fYvrUzjAnFo6KrJ6U-120" value="Import to Power BI" style="shape=parallelogram;perimeter=parallelogramPerimeter;whiteSpace=wrap;html=1;fixedSize=1;" vertex="1" parent="1">
          <mxGeometry x="380" y="1670" width="140" height="60" as="geometry" />
        </mxCell>
        <mxCell id="MM9fYvrUzjAnFo6KrJ6U-126" style="edgeStyle=orthogonalEdgeStyle;rounded=0;orthogonalLoop=1;jettySize=auto;html=1;exitX=1;exitY=0.5;exitDx=0;exitDy=0;entryX=0;entryY=0.5;entryDx=0;entryDy=0;" edge="1" parent="1" source="MM9fYvrUzjAnFo6KrJ6U-121" target="MM9fYvrUzjAnFo6KrJ6U-125">
          <mxGeometry relative="1" as="geometry" />
        </mxCell>
        <mxCell id="MM9fYvrUzjAnFo6KrJ6U-121" value="Open Likhit&#39;s Power BI rerport template" style="rounded=0;whiteSpace=wrap;html=1;" vertex="1" parent="1">
          <mxGeometry x="605" y="1670" width="120" height="60" as="geometry" />
        </mxCell>
        <mxCell id="MM9fYvrUzjAnFo6KrJ6U-131" style="edgeStyle=orthogonalEdgeStyle;rounded=0;orthogonalLoop=1;jettySize=auto;html=1;exitX=0.5;exitY=1;exitDx=0;exitDy=0;entryX=0.5;entryY=0;entryDx=0;entryDy=0;" edge="1" parent="1" source="MM9fYvrUzjAnFo6KrJ6U-124" target="MM9fYvrUzjAnFo6KrJ6U-130">
          <mxGeometry relative="1" as="geometry">
            <Array as="points">
              <mxPoint x="862" y="1910" />
              <mxPoint x="470" y="1910" />
            </Array>
          </mxGeometry>
        </mxCell>
        <mxCell id="MM9fYvrUzjAnFo6KrJ6U-124" value="Perform RFM calculations" style="rounded=0;whiteSpace=wrap;html=1;" vertex="1" parent="1">
          <mxGeometry x="802.5005882352941" y="1770" width="120" height="60" as="geometry" />
        </mxCell>
        <mxCell id="MM9fYvrUzjAnFo6KrJ6U-127" style="edgeStyle=orthogonalEdgeStyle;rounded=0;orthogonalLoop=1;jettySize=auto;html=1;exitX=0.5;exitY=1;exitDx=0;exitDy=0;entryX=0.5;entryY=0;entryDx=0;entryDy=0;" edge="1" parent="1" source="MM9fYvrUzjAnFo6KrJ6U-125" target="MM9fYvrUzjAnFo6KrJ6U-124">
          <mxGeometry relative="1" as="geometry" />
        </mxCell>
        <mxCell id="MM9fYvrUzjAnFo6KrJ6U-125" value="Change refDate" style="html=1;strokeWidth=2;shape=manualInput;whiteSpace=wrap;rounded=1;size=26;arcSize=0;" vertex="1" parent="1">
          <mxGeometry x="800" y="1665" width="122.5" height="70" as="geometry" />
        </mxCell>
        <mxCell id="MM9fYvrUzjAnFo6KrJ6U-139" style="edgeStyle=orthogonalEdgeStyle;rounded=0;orthogonalLoop=1;jettySize=auto;html=1;exitX=1;exitY=0.5;exitDx=0;exitDy=0;entryX=0;entryY=0.5;entryDx=0;entryDy=0;entryPerimeter=0;" edge="1" parent="1" source="MM9fYvrUzjAnFo6KrJ6U-130" target="MM9fYvrUzjAnFo6KrJ6U-138">
          <mxGeometry relative="1" as="geometry" />
        </mxCell>
        <mxCell id="MM9fYvrUzjAnFo6KrJ6U-130" value="Visualize in Power BI" style="rounded=0;whiteSpace=wrap;html=1;" vertex="1" parent="1">
          <mxGeometry x="410" y="2000" width="120" height="60" as="geometry" />
        </mxCell>
        <mxCell id="MM9fYvrUzjAnFo6KrJ6U-135" value="Phase 2" style="swimlane;horizontal=0;whiteSpace=wrap;html=1;" vertex="1" parent="1">
          <mxGeometry x="-40" y="790" width="1140" height="1150" as="geometry" />
        </mxCell>
        <mxCell id="xa-D4K-9--y_-R1omy8u-9" style="edgeStyle=orthogonalEdgeStyle;rounded=0;orthogonalLoop=1;jettySize=auto;html=1;exitX=0.5;exitY=1;exitDx=0;exitDy=0;" edge="1" parent="MM9fYvrUzjAnFo6KrJ6U-135" source="xa-D4K-9--y_-R1omy8u-1" target="xa-D4K-9--y_-R1omy8u-8">
          <mxGeometry relative="1" as="geometry" />
        </mxCell>
        <mxCell id="xa-D4K-9--y_-R1omy8u-1" value="Export as CSV" style="rounded=0;whiteSpace=wrap;html=1;" vertex="1" parent="MM9fYvrUzjAnFo6KrJ6U-135">
          <mxGeometry x="100" y="695" width="120" height="60" as="geometry" />
        </mxCell>
        <mxCell id="xa-D4K-9--y_-R1omy8u-8" value="Refresh data in Power BI" style="rounded=0;whiteSpace=wrap;html=1;" vertex="1" parent="MM9fYvrUzjAnFo6KrJ6U-135">
          <mxGeometry x="100" y="860" width="120" height="60" as="geometry" />
        </mxCell>
        <mxCell id="MM9fYvrUzjAnFo6KrJ6U-136" value="Phase 3" style="swimlane;horizontal=0;whiteSpace=wrap;html=1;" vertex="1" parent="1">
          <mxGeometry x="-40" y="1940" width="1140" height="160" as="geometry" />
        </mxCell>
        <mxCell id="MM9fYvrUzjAnFo6KrJ6U-138" value="END" style="strokeWidth=2;html=1;shape=mxgraph.flowchart.terminator;whiteSpace=wrap;" vertex="1" parent="MM9fYvrUzjAnFo6KrJ6U-136">
          <mxGeometry x="655" y="65" width="85" height="50" as="geometry" />
        </mxCell>
        <mxCell id="xa-D4K-9--y_-R1omy8u-10" style="edgeStyle=orthogonalEdgeStyle;rounded=0;orthogonalLoop=1;jettySize=auto;html=1;exitX=0.5;exitY=1;exitDx=0;exitDy=0;entryX=0.5;entryY=0;entryDx=0;entryDy=0;" edge="1" parent="1" source="xa-D4K-9--y_-R1omy8u-8" target="MM9fYvrUzjAnFo6KrJ6U-130">
          <mxGeometry relative="1" as="geometry">
            <Array as="points">
              <mxPoint x="120" y="1910" />
              <mxPoint x="470" y="1910" />
            </Array>
          </mxGeometry>
        </mxCell>
      </root>
    </mxGraphModel>
  </diagram>
</mxfile>
